<svg xmlns="http://www.w3.org/2000/svg" xmlns:xlink="http://www.w3.org/1999/xlink" width="500" zoomAndPan="magnify" viewBox="0 0 375 374.999991" height="500" preserveAspectRatio="xMidYMid meet" version="1.0"><defs><clipPath id="04d57e94e7"><path d="M 7.5 15 L 367.5 15 L 367.5 375 L 7.5 375 Z M 7.5 15 " clip-rule="nonzero"/></clipPath></defs><path fill="#000000" d="M 274.820312 252.308594 C 279.320312 256.8125 289.21875 266.707031 291.054688 268.542969 L 312.699219 246.898438 L 296.464844 230.664062 Z M 274.820312 252.308594 " fill-opacity="1" fill-rule="nonzero"/><path fill="#000000" d="M 352.042969 7.652344 C 352.042969 3.425781 348.613281 0 344.386719 0 C 340.160156 0 336.734375 3.425781 336.734375 7.652344 L 336.734375 94.886719 C 342.613281 103.609375 347.742188 112.878906 352.039062 122.589844 L 352.039062 7.652344 Z M 352.042969 7.652344 " fill-opacity="1" fill-rule="nonzero"/><g clip-path="url(#04d57e94e7)"><path fill="#000000" d="M 352.042969 122.589844 L 352.042969 198.980469 C 352.042969 201.007812 351.234375 202.957031 349.800781 204.390625 L 320.820312 233.371094 L 328.933594 241.484375 C 331.921875 244.472656 331.921875 249.320312 328.933594 252.308594 L 296.464844 284.78125 C 293.476562 287.769531 288.632812 287.769531 285.640625 284.78125 L 277.523438 276.664062 L 272.113281 282.074219 C 269.125 285.0625 264.28125 285.0625 261.289062 282.074219 C 258.300781 279.085938 258.300781 274.238281 261.289062 271.25 L 266.703125 265.839844 L 258.582031 257.722656 C 255.597656 254.734375 255.597656 249.886719 258.582031 246.898438 L 291.054688 214.429688 C 294.042969 211.441406 298.886719 211.441406 301.875 214.429688 L 309.996094 222.546875 L 336.734375 195.808594 L 336.734375 94.886719 C 304.402344 46.917969 249.574219 15.304688 187.5 15.304688 C 88.332031 15.304688 7.652344 95.984375 7.652344 195.152344 C 7.652344 294.320312 88.332031 375 187.5 375 C 286.667969 375 367.347656 294.320312 367.347656 195.152344 C 367.347656 169.347656 361.871094 144.796875 352.042969 122.589844 Z M 187.5 264.03125 C 149.519531 264.03125 118.621094 233.132812 118.621094 195.152344 C 118.621094 157.175781 149.519531 126.277344 187.5 126.277344 C 225.480469 126.277344 256.378906 157.175781 256.378906 195.152344 C 256.378906 233.132812 225.480469 264.03125 187.5 264.03125 Z M 187.5 264.03125 " fill-opacity="1" fill-rule="nonzero"/></g><path fill="#000000" d="M 187.5 141.582031 C 157.960938 141.582031 133.929688 165.613281 133.929688 195.152344 C 133.929688 224.691406 157.960938 248.722656 187.5 248.722656 C 217.039062 248.722656 241.070312 224.691406 241.070312 195.152344 C 241.070312 165.613281 217.039062 141.582031 187.5 141.582031 Z M 187.5 222.363281 C 172.496094 222.363281 160.289062 210.15625 160.289062 195.152344 C 160.289062 180.148438 172.496094 167.941406 187.5 167.941406 C 202.503906 167.941406 214.710938 180.148438 214.710938 195.152344 C 214.710938 210.15625 202.503906 222.363281 187.5 222.363281 Z M 187.5 222.363281 " fill-opacity="1" fill-rule="nonzero"/></svg>